<?xml version="1.0" standalone="no"?>
<!DOCTYPE svg PUBLIC "-//W3C//DTD SVG 20010904//EN"
 "http://www.w3.org/TR/2001/REC-SVG-20010904/DTD/svg10.dtd">
<svg version="1.0" xmlns="http://www.w3.org/2000/svg"
 width="1856.000000pt" height="576.000000pt" viewBox="0 0 1856.000000 576.000000"
 preserveAspectRatio="xMidYMid meet">
<metadata>
Created by potrace 1.16, written by Peter Selinger 2001-2019
</metadata>
<g transform="translate(0.000000,576.000000) scale(0.100000,-0.100000)"
fill="#000000" stroke="none">
<path fill="#000000" stroke="none" d="M7488 4193 c-63 -16 -247 -402 -376
-788 -115 -346 -216 -721 -251 -940 -28 -170 -21 -296 19 -376 36 -69 106
-137 158 -153 32 -10 27 7 -7 22 -53 23 -128 114 -148 178 -52 171 23 560 240
1234 83 258 221 585 297 706 22 35 40 68 40 73 0 11 25 21 52 21 12 0 50 -16
85 -35 35 -19 63 -33 63 -31 0 2 17 -12 38 -31 20 -19 45 -39 55 -45 16 -8 17
-7 8 10 -13 25 -31 39 -56 44 -11 2 -19 7 -17 12 4 10 -34 37 -98 70 -53 28
-79 35 -102 29z"/>
<path fill="#000000" stroke="none" d="M7741 4053 c13 -16 12 -17 -3 -4 -10 7
-18 15 -18 17 0 8 8 3 21 -13z"/>
<path fill="#000000" stroke="none" d="M6438 4131 c-100 -107 -218 -322 -321
-581 -133 -333 -257 -885 -257 -1139 0 -68 3 -82 29 -123 39 -62 104 -126 136
-134 14 -3 25 -12 25 -19 0 -15 50 -78 57 -71 2 2 16 -7 30 -20 47 -43 154
-45 241 -2 65 31 178 147 245 249 168 261 262 565 236 769 -19 154 -126 291
-226 290 -24 -1 -20 -4 21 -20 96 -38 167 -140 187 -272 22 -138 -30 -353
-141 -586 -33 -68 -79 -152 -104 -186 -43 -61 -165 -201 -176 -201 -3 -1 -33
-15 -67 -33 -68 -35 -94 -38 -157 -20 -41 11 -126 82 -126 104 0 6 15 23 33
37 69 53 155 147 215 235 113 165 227 428 251 582 13 78 14 150 3 150 -5 0
-22 -20 -40 -45 -17 -25 -36 -45 -41 -45 -16 0 -100 -131 -184 -285 -88 -163
-181 -391 -205 -506 -19 -93 -35 -109 -81 -84 -16 8 -55 48 -87 87 l-57 73 6
115 c15 300 134 801 277 1155 55 138 167 347 235 438 36 48 65 91 65 96 0 16
58 33 89 26 55 -12 201 -121 201 -151 0 -6 -14 -31 -32 -55 -42 -57 -45 -79
-6 -43 40 38 61 86 49 117 -20 51 -159 147 -224 154 -42 5 -44 3 -99 -56z"/>
<path fill="#000000" stroke="none" d="M6556 3040 c-18 -154 -130 -430 -247
-605 -50 -74 -187 -230 -196 -222 -2 2 13 57 33 122 31 103 158 398 186 432 5
7 6 18 2 25 -4 7 -4 10 1 6 4 -4 43 49 85 117 84 134 120 184 134 184 5 1 6
-26 2 -59z"/>
<path fill="#000000" stroke="none" d="M6478 4109 c-121 -127 -283 -451 -386
-769 -90 -278 -150 -552 -179 -815 -16 -153 -16 -157 3 -193 24 -45 112 -142
128 -142 8 0 23 40 38 98 35 131 86 258 174 432 124 246 271 450 325 450 47 0
32 -150 -35 -354 -79 -240 -196 -437 -354 -596 l-94 -94 33 -28 c154 -129 374
27 549 387 96 197 145 388 138 536 -4 76 -9 97 -39 156 -62 122 -146 161 -242
112 -94 -48 -238 -232 -347 -444 -42 -82 -50 -93 -44 -60 27 155 108 405 199
612 97 220 192 376 350 572 l35 44 -21 24 c-27 28 -136 98 -167 108 -19 5 -31
-1 -64 -36z"/>
<path fill="#000000" stroke="none" d="M7469 4108 c-96 -132 -254 -517 -380
-927 -158 -516 -224 -865 -190 -1009 17 -67 60 -134 112 -172 60 -43 69 -40
69 23 0 192 86 625 192 972 121 395 247 690 393 912 35 53 61 103 58 110 -6
15 -97 79 -148 105 -65 33 -72 32 -106 -14z"/>
<path fill="#000000" stroke="none" d="M11445 4038 c-11 -6 -54 -13 -95 -14
-140 -4 -244 -63 -344 -197 -76 -100 -150 -255 -209 -435 l-50 -152 -41 -11
c-61 -15 -73 -21 -59 -26 7 -2 37 0 66 7 l54 11 32 107 c106 348 241 562 406
643 60 29 80 34 150 35 47 1 98 9 125 19 43 16 137 14 126 -3 -2 -4 2 -18 10
-32 13 -25 13 -25 14 -2 0 12 -5 22 -12 22 -6 0 -8 3 -5 7 4 3 2 12 -4 20 -14
16 -135 17 -164 1z"/>
<path fill="#000000" stroke="none" d="M11460 3994 c-20 -9 -70 -16 -115 -17
-96 -2 -149 -25 -230 -99 -108 -99 -205 -281 -286 -540 l-44 -137 -95 -22
c-52 -12 -103 -26 -112 -31 -21 -10 -23 -47 -5 -72 12 -17 21 -17 98 -9 46 6
85 10 86 9 1 -1 -23 -112 -53 -246 -88 -397 -224 -1079 -224 -1124 0 -15 118
-179 136 -189 18 -10 15 -17 59 183 38 174 251 1023 312 1246 l36 131 111 -1
111 -1 3 42 c2 22 -4 58 -12 78 l-16 36 -79 -7 -80 -7 24 89 c50 188 118 365
181 474 39 67 90 118 104 104 5 -5 14 -76 20 -157 5 -82 15 -157 21 -168 10
-20 11 -20 31 -2 51 45 138 303 138 411 l0 42 -42 0 c-24 -1 -59 -8 -78 -16z"/>
<path fill="#000000" stroke="none" d="M7748 3980 c-26 -15 -170 -262 -233
-400 -200 -437 -364 -1042 -405 -1495 -9 -99 -16 -132 -29 -141 -19 -14 -11
-27 12 -18 23 9 28 28 38 164 12 181 33 297 100 580 124 518 301 956 523 1293
20 29 19 31 -6 17z"/>
<path fill="#000000" stroke="none" d="M501 3961 c-11 -7 -13 -115 -12 -617 2
-636 8 -790 42 -1064 33 -264 30 -258 134 -302 104 -45 113 -40 18 9 -51 26
-95 53 -97 60 -7 18 -44 287 -57 418 -7 64 -13 401 -16 801 l-5 691 59 -8
c111 -17 265 -81 308 -129 17 -19 17 -25 2 -117 -25 -152 -40 -413 -41 -703
-1 -298 12 -631 24 -609 4 8 31 82 58 164 203 608 471 1231 577 1342 22 23 52
44 67 48 27 7 87 -14 121 -43 11 -10 17 -11 17 -4 0 22 -76 63 -119 64 -70 1
-110 -40 -199 -202 -123 -224 -338 -753 -462 -1135 -18 -55 -36 -104 -40 -108
-12 -13 -19 68 -26 304 -9 313 15 745 51 917 l13 64 -29 32 c-27 31 -122 82
-165 89 -10 1 -24 6 -30 10 -15 9 -134 37 -159 37 -11 0 -26 -4 -34 -9z"/>
<path fill="#000000" stroke="none" d="M533 3268 c3 -373 10 -711 16 -773 12
-124 49 -402 57 -426 2 -9 44 -35 92 -57 93 -44 170 -56 205 -29 10 7 37 84
66 187 111 386 291 849 456 1169 109 211 202 342 288 408 27 21 27 23 13 50
-8 16 -37 50 -65 76 -90 85 -133 61 -238 -133 -150 -279 -388 -886 -544 -1390
l-33 -105 -7 48 c-18 119 -31 530 -26 807 6 312 18 484 42 615 15 79 15 80 -7
99 -52 42 -148 79 -291 111 l-29 6 5 -663z"/>
<path fill="#000000" stroke="none" d="M9242 3910 c-45 -49 -160 -354 -259
-690 -122 -415 -194 -754 -196 -925 -2 -105 1 -127 21 -178 45 -110 146 -207
218 -207 42 0 50 14 59 110 16 183 79 525 140 771 97 387 184 642 286 837 32
63 59 124 59 136 0 29 -67 96 -132 131 -34 18 -71 29 -113 32 -55 5 -64 3 -83
-17z"/>
<path fill="#000000" stroke="none" d="M9395 3896 c19 -8 35 -13 35 -11 0 1
14 -10 31 -26 18 -16 34 -27 37 -24 3 3 18 -7 34 -22 35 -34 36 -71 3 -107
-67 -73 -188 -382 -275 -706 -23 -85 -46 -171 -51 -190 -50 -186 -107 -491
-135 -720 -9 -80 -23 -151 -30 -159 -19 -20 -94 19 -145 77 -95 107 -113 207
-80 432 57 377 266 1103 397 1378 l44 92 50 0 c28 0 66 -7 85 -14z"/>
<path fill="#000000" stroke="none" d="M9250 3829 c-135 -266 -368 -1078 -415
-1446 -18 -137 -12 -201 25 -274 43 -82 152 -178 170 -149 4 7 11 49 15 94 43
499 294 1414 451 1648 19 28 34 54 34 58 0 13 -81 80 -122 101 -21 11 -58 22
-82 25 l-44 7 -32 -64z"/>
<path fill="#000000" stroke="none" d="M11590 3863 c-36 -182 -111 -343 -159
-343 -41 0 -52 32 -64 187 l-12 148 -37 -49 c-21 -27 -35 -52 -32 -57 3 -5 1
-9 -4 -9 -19 0 -65 -106 -127 -295 -36 -108 -65 -198 -65 -199 0 -1 34 0 75 2
74 4 75 4 86 -24 6 -16 16 -55 22 -86 15 -84 9 -88 -123 -88 l-107 0 -36 -132
c-92 -332 -252 -973 -312 -1246 -19 -85 -40 -162 -48 -170 -22 -22 -53 -6 -92
46 -19 26 -48 65 -65 88 -20 27 -30 53 -30 75 0 71 125 700 248 1249 l19 85
-78 -4 c-68 -3 -80 0 -98 18 -27 27 -27 61 0 95 26 33 18 45 -10 17 -38 -38
-21 -136 25 -147 13 -3 48 -4 79 -2 30 1 55 2 55 1 0 -1 -14 -62 -30 -135 -67
-294 -158 -741 -216 -1056 l-26 -144 20 -27 c11 -15 40 -56 63 -90 24 -35 54
-71 67 -82 32 -25 78 -25 91 0 6 10 26 92 46 182 20 90 72 307 116 482 70 284
108 429 198 772 l26 100 110 5 c109 5 110 5 123 33 15 32 5 123 -20 175 -12
25 -18 27 -80 30 l-67 3 15 52 c52 178 130 373 179 445 l25 37 0 -30 c1 -17 5
-74 10 -128 7 -82 12 -103 31 -123 71 -75 160 43 219 289 22 93 24 107 11 107
-5 0 -15 -26 -21 -57z"/>
<path fill="#000000" stroke="none" d="M1710 3885 c0 -4 11 -20 25 -37 42 -49
34 -85 -30 -141 -125 -109 -275 -375 -447 -792 -142 -345 -330 -925 -299 -925
3 0 19 46 35 103 89 315 212 657 346 957 148 335 258 522 371 632 82 79 87
101 34 167 -19 24 -35 40 -35 36z"/>
<path fill="#000000" stroke="none" d="M6609 3821 c-87 -118 -234 -395 -284
-536 -9 -27 -23 -63 -30 -80 -7 -16 -18 -46 -23 -65 -6 -19 -22 -68 -36 -109
-15 -41 -25 -76 -23 -78 2 -2 28 36 57 83 62 102 256 304 275 286 3 -3 5 0 5
6 0 16 -5 15 -48 -7 -42 -22 -156 -136 -196 -196 -14 -22 -26 -35 -26 -29 0
15 45 135 71 193 11 24 29 66 40 95 36 91 127 259 194 359 35 53 62 97 59 97
-4 0 4 8 16 18 18 14 19 19 7 19 -9 0 -35 -25 -58 -56z"/>
<path fill="#000000" stroke="none" d="M16673 3848 c-22 -28 -32 -57 -51 -153
-34 -166 -35 -180 -17 -252 30 -121 62 -157 132 -151 36 3 41 7 83 79 25 42
70 109 100 148 90 119 94 127 80 162 -18 42 -105 117 -175 150 -64 31 -135 38
-152 17z"/>
<path fill="#000000" stroke="none" d="M16797 3825 c20 -9 52 -27 70 -41 18
-14 33 -21 33 -17 0 4 5 0 11 -10 6 -9 15 -14 21 -11 7 4 8 2 4 -4 -4 -7 -1
-12 8 -12 8 0 18 -5 22 -12 5 -7 3 -8 -6 -3 -8 5 -7 -1 3 -16 24 -34 21 -59
-12 -99 -44 -55 -136 -191 -160 -238 -29 -57 -62 -72 -99 -45 -32 24 -51 60
-58 111 -3 20 -11 47 -17 60 -8 17 -7 45 7 115 26 139 47 221 60 229 19 13 75
9 113 -7z"/>
<path fill="#000000" stroke="none" d="M16702 3811 c-7 -4 -24 -67 -38 -139
-25 -123 -26 -137 -14 -206 7 -42 21 -89 32 -106 30 -51 52 -38 119 69 33 52
82 123 111 158 60 76 58 85 -25 150 -81 62 -155 93 -185 74z"/>
<path fill="#000000" stroke="none" d="M4660 3714 c-53 -22 -144 -154 -225
-328 l-44 -96 -90 0 c-105 0 -111 -5 -111 -93 0 -110 25 -157 82 -157 36 0 38
18 -20 -195 -66 -241 -95 -397 -96 -510 -1 -95 14 -165 35 -165 4 0 1 17 -8
38 -21 50 -11 213 21 360 54 241 67 291 96 382 16 52 30 98 30 103 0 4 -18 7
-40 7 -58 0 -75 30 -75 135 l0 80 65 -4 c108 -8 122 -7 130 9 5 8 37 76 73
150 67 137 120 217 170 254 27 20 28 20 93 3 88 -24 158 -58 162 -80 2 -10
-14 -48 -37 -85 -22 -37 -41 -74 -43 -82 -2 -8 -6 -18 -11 -21 -4 -3 -23 -36
-42 -75 l-35 -69 57 -3 c38 -2 65 -9 78 -21 35 -32 49 -36 36 -12 -16 29 -43
41 -95 41 -25 0 -46 2 -46 5 0 10 78 160 114 219 40 66 45 105 19 132 -46 45
-200 95 -243 78z"/>
<path fill="#000000" stroke="none" d="M16031 3685 c-51 -46 -113 -146 -181
-287 l-52 -108 -54 0 c-34 0 -53 -4 -49 -10 3 -5 32 -10 63 -10 l57 0 72 148
c72 147 125 228 175 265 24 18 31 18 80 7 29 -7 72 -21 96 -31 23 -10 46 -19
50 -20 22 -3 30 -22 22 -50 -5 -17 -13 -36 -19 -42 -14 -17 -109 -195 -131
-245 l-20 -44 51 7 c65 9 102 -6 117 -49 32 -87 18 -99 -142 -121 -73 -10
-104 -19 -113 -32 -8 -9 -33 -78 -57 -153 -127 -390 -170 -682 -106 -723 25
-15 93 10 160 58 33 25 65 43 71 40 5 -4 16 -20 25 -38 15 -28 15 -33 0 -62
-23 -42 -136 -141 -188 -165 -63 -28 -105 -25 -184 15 -223 111 -240 217 -120
715 19 80 46 182 59 228 l25 82 -37 0 c-20 0 -41 4 -48 8 -21 13 -33 61 -33
131 0 60 2 69 23 79 l22 12 -25 -3 c-36 -3 -52 -41 -47 -114 6 -86 31 -127 80
-131 30 -3 37 -7 33 -20 -7 -24 -66 -240 -77 -282 -35 -136 -62 -291 -66 -390
-5 -110 -4 -118 20 -166 51 -101 177 -187 294 -201 65 -8 135 31 227 127 61
64 76 86 76 111 0 33 -46 89 -74 89 -8 0 -36 -18 -61 -40 -51 -44 -109 -75
-140 -75 -19 0 -20 6 -19 115 2 90 9 145 34 255 34 147 83 313 126 428 29 74
19 69 153 87 139 19 161 36 141 111 -17 63 -49 89 -110 89 -27 0 -50 2 -50 4
0 12 75 160 110 216 43 70 50 109 23 136 -28 27 -140 75 -193 81 -44 5 -50 3
-89 -32z"/>
<path fill="#000000" stroke="none" d="M4662 3663 c-26 -10 -105 -137 -174
-278 l-71 -148 -93 6 -94 5 0 -49 c0 -27 7 -66 15 -85 l15 -35 56 7 c48 6 56
4 51 -8 -49 -130 -142 -505 -163 -664 -15 -111 -15 -125 0 -176 29 -100 148
-195 256 -206 63 -6 107 16 192 96 74 70 88 96 65 119 -13 13 -20 10 -63 -23
-62 -47 -103 -64 -154 -64 -37 0 -42 3 -56 35 -47 112 28 493 166 848 25 63
17 59 150 78 47 6 95 16 108 20 26 10 29 44 6 77 -13 20 -24 22 -95 22 -43 0
-79 2 -79 5 0 10 103 211 143 279 l41 69 -22 18 c-49 39 -160 68 -200 52z"/>
<path fill="#000000" stroke="none" d="M16037 3628 c-48 -60 -112 -174 -162
-287 l-42 -96 -96 2 -97 2 0 -63 c0 -40 6 -69 16 -84 14 -20 21 -22 65 -16 31
4 49 3 49 -4 0 -5 -9 -38 -19 -73 -75 -247 -137 -522 -147 -661 -6 -81 -5 -91
20 -142 46 -95 167 -177 261 -178 55 -1 124 41 195 119 73 80 67 146 -9 85
-60 -48 -112 -72 -158 -72 -35 0 -46 5 -60 27 -39 59 -9 304 72 580 40 138
100 310 115 328 6 7 43 16 83 19 101 10 168 26 173 41 3 7 -2 29 -10 49 l-15
36 -81 0 c-80 0 -81 0 -74 23 9 28 92 193 139 274 l36 62 -25 16 c-40 26 -124
55 -160 55 -29 0 -41 -7 -69 -42z"/>
<path fill="#000000" stroke="none" d="M18090 3438 c-65 -32 -171 -141 -204
-212 -35 -73 -58 -202 -50 -270 4 -28 19 -106 35 -174 16 -68 29 -131 29 -141
0 -13 -16 -25 -51 -39 -123 -52 -238 -151 -288 -249 -20 -41 -40 -60 -27 -28
9 26 1 17 -40 -40 -21 -30 -42 -55 -46 -55 -3 0 -23 -22 -43 -50 -20 -27 -39
-49 -43 -48 -4 1 -35 -17 -70 -39 -113 -74 -171 -79 -271 -22 -111 64 -173
148 -216 294 -59 199 -24 437 94 643 64 112 132 187 223 248 40 27 75 52 78
55 15 17 84 29 168 29 75 0 105 -4 136 -20 51 -24 116 -86 116 -111 0 -10 4
-20 9 -24 5 -3 9 -51 8 -108 -3 -133 -32 -220 -95 -284 -61 -61 -115 -59 -184
5 -37 34 -35 55 6 104 19 22 45 61 56 86 27 57 39 151 20 162 -38 23 -142 -60
-219 -175 -122 -182 -179 -454 -135 -645 20 -88 29 -96 93 -80 61 14 115 48
209 129 64 55 76 62 102 56 17 -4 28 -10 25 -15 -3 -5 0 -12 6 -15 6 -4 14
-17 19 -29 l9 -21 0 23 c1 12 -4 22 -10 22 -5 0 -8 4 -4 9 9 15 -36 51 -63 51
-16 0 -48 -23 -95 -66 -39 -36 -89 -75 -111 -86 -58 -30 -115 -48 -130 -42
-38 15 -60 156 -44 284 27 224 142 457 270 550 60 44 72 40 64 -16 -8 -64 -36
-121 -84 -177 -46 -53 -47 -55 -31 -91 20 -44 84 -80 142 -80 72 -1 107 26
152 117 61 125 71 259 25 365 -26 61 -70 103 -134 127 -61 23 -197 16 -277
-14 -260 -99 -460 -429 -461 -761 -1 -134 15 -211 67 -316 45 -92 139 -183
220 -213 150 -56 260 -3 460 224 l26 30 -17 -35 c-26 -53 -31 -179 -9 -237 33
-87 107 -148 208 -173 96 -25 240 32 328 128 97 106 133 218 127 392 l-3 105
45 13 c111 33 131 54 109 119 -14 43 -34 53 -108 53 l-60 0 -7 46 c-8 57 1
206 15 255 15 48 53 104 71 104 22 0 24 -56 5 -122 -13 -45 -14 -61 -5 -79 15
-26 50 -44 90 -44 92 0 179 280 123 397 -20 43 -176 209 -214 229 -39 20 -86
17 -139 -8z"/>
<path fill="#000000" stroke="none" d="M18226 3423 c38 -22 176 -169 198 -211
32 -62 17 -192 -34 -293 -31 -62 -49 -79 -81 -79 -39 0 -62 26 -56 64 3 17 8
50 12 73 4 23 4 58 1 77 -6 29 -11 36 -30 36 -13 0 -31 -10 -42 -22 -13 -14
-14 -19 -4 -14 8 4 5 -1 -8 -11 -50 -41 -76 -215 -56 -367 6 -38 10 -46 23
-41 9 4 37 9 62 12 38 4 50 2 67 -15 11 -11 22 -18 24 -16 3 2 4 -12 3 -31 0
-19 -4 -37 -8 -41 -4 -4 -38 -18 -75 -30 l-67 -23 -6 -143 c-8 -186 -32 -259
-118 -352 -71 -76 -193 -136 -278 -136 -77 0 -176 69 -217 152 -34 68 -35 147
-1 242 29 82 62 133 135 206 76 76 87 83 176 118 78 30 79 31 76 64 -2 18 -15
80 -29 138 -34 144 -41 271 -18 356 31 115 126 233 228 283 51 26 83 26 123 4z"/>
<path fill="#000000" stroke="none" d="M18094 3384 c-78 -47 -90 -58 -136
-128 -48 -74 -78 -170 -78 -248 0 -33 14 -120 31 -192 17 -72 32 -153 33 -180
l1 -49 -53 -18 c-125 -43 -244 -144 -300 -255 -43 -86 -65 -169 -58 -216 13
-79 70 -155 145 -193 50 -25 141 -17 214 19 164 80 247 252 232 481 l-7 101
77 24 c42 13 79 28 82 33 2 4 2 20 -2 34 -6 25 -6 25 -85 19 l-78 -7 -7 55
c-4 30 -6 108 -4 173 4 110 6 123 37 186 26 52 42 72 67 84 31 15 36 15 59 -1
23 -15 26 -23 26 -79 0 -34 -5 -80 -11 -101 -10 -35 -9 -42 7 -53 31 -22 47
-11 82 57 37 73 59 177 48 233 -12 63 -198 257 -248 257 -8 0 -41 -16 -74 -36z"/>
<path fill="#000000" stroke="none" d="M17956 2316 c-32 -138 -138 -286 -205
-286 -38 0 -45 13 -45 76 2 95 96 231 210 304 l49 31 3 -29 c2 -16 -4 -59 -12
-96z"/>
<path fill="#000000" stroke="none" d="M17864 2333 c-77 -74 -120 -149 -129
-223 l-5 -45 19 58 c23 71 71 146 119 189 46 39 52 24 22 -52 -25 -64 -49
-101 -103 -157 -54 -57 -41 -66 18 -12 56 51 123 183 132 258 3 28 4 51 2 51
-2 0 -36 -30 -75 -67z"/>
<path fill="#000000" stroke="none" d="M9675 3358 c-130 -154 -362 -857 -368
-1113 -2 -81 1 -97 27 -153 34 -73 84 -122 126 -122 35 0 68 38 136 157 122
213 190 321 268 427 83 112 106 137 106 117 0 -5 -10 -49 -22 -98 -15 -64 -22
-121 -22 -208 -1 -106 2 -126 23 -172 44 -97 140 -154 233 -136 57 10 139 54
186 99 41 40 44 46 39 80 -7 42 -42 84 -69 84 -11 0 -32 -7 -47 -15 -26 -13
-30 -13 -42 1 -10 13 -11 33 -2 102 24 184 129 476 203 566 22 26 40 56 40 65
0 32 -48 117 -83 148 -96 84 -219 42 -397 -137 -58 -58 -123 -133 -145 -168
-22 -34 -43 -62 -47 -62 -4 0 22 61 58 135 71 148 78 189 45 260 -38 83 -141
175 -195 175 -15 0 -34 -12 -51 -32z"/>
<path fill="#000000" stroke="none" d="M9746 3371 c-3 -5 5 -12 18 -15 37 -9
122 -96 140 -145 29 -77 25 -95 -72 -302 -135 -288 -135 -291 -32 -144 35 50
80 108 99 131 60 67 108 128 110 139 4 16 33 45 41 40 3 -2 31 16 61 41 80 67
125 88 190 88 68 1 99 -18 140 -82 36 -58 37 -83 0 -124 -85 -98 -202 -428
-217 -613 -8 -108 2 -122 68 -98 44 17 48 16 67 -1 11 -10 23 -32 27 -49 6
-29 2 -36 -42 -74 -95 -84 -202 -109 -289 -67 -70 33 -115 135 -115 263 0 90
39 271 88 411 26 74 -264 -303 -337 -438 -62 -117 -158 -276 -184 -308 -37
-45 -66 -44 -107 2 -43 49 -71 116 -77 186 -16 161 177 797 318 1052 27 49 49
92 49 97 0 4 8 10 18 12 30 8 43 7 38 -2z"/>
<path fill="#000000" stroke="none" d="M9673 3273 c-135 -241 -307 -781 -320
-1005 -5 -91 -4 -100 21 -151 14 -30 38 -67 52 -82 l25 -27 28 26 c15 15 47
61 71 104 155 280 300 491 425 620 44 45 85 82 91 82 7 0 -3 -46 -26 -118 -51
-158 -72 -270 -72 -375 0 -76 3 -94 28 -144 35 -68 66 -93 127 -100 58 -7 123
15 188 62 50 37 59 58 39 96 -10 18 -13 18 -47 4 -81 -34 -103 -13 -103 96 0
163 129 551 212 636 27 27 30 36 24 68 -5 23 -22 51 -47 76 -34 34 -44 39 -86
39 -131 0 -314 -180 -565 -554 -60 -88 -108 -153 -108 -144 0 39 71 211 201
489 38 81 69 155 69 165 -1 38 -41 106 -90 154 -72 70 -89 68 -137 -17z"/>
<path fill="#000000" stroke="none" d="M10029 3053 c-13 -16 -12 -17 4 -4 9 7
17 15 17 17 0 8 -8 3 -21 -13z"/>
<path fill="#000000" stroke="none" d="M13246 3355 c-42 -45 -169 -358 -245
-603 -48 -155 -71 -274 -78 -410 l-6 -122 37 -74 c41 -84 83 -126 126 -126 34
0 46 15 115 145 126 236 222 404 300 525 58 90 54 85 61 78 3 -3 -6 -34 -20
-68 -74 -182 -132 -458 -108 -516 12 -27 82 -115 82 -102 0 3 15 -9 34 -28 41
-41 83 -45 113 -11 11 12 64 103 117 202 118 216 288 494 293 478 3 -7 -1 -21
-7 -32 -6 -12 -7 -21 -3 -21 7 0 49 97 72 164 9 28 -45 -41 -122 -154 -81
-121 -223 -364 -301 -518 -48 -95 -55 -107 -78 -121 -24 -15 -64 8 -119 66
-55 58 -69 84 -69 125 0 107 103 467 178 621 21 42 36 77 34 77 -33 0 -398
-576 -419 -660 -3 -14 -9 -27 -13 -30 -4 -3 -26 -39 -50 -80 -24 -41 -52 -87
-62 -102 -18 -27 -20 -27 -48 -13 -71 37 -120 145 -120 263 0 79 29 266 55
360 40 148 172 498 231 614 13 26 24 51 23 54 -1 11 25 24 49 24 37 0 101 -38
154 -91 47 -47 50 -53 46 -92 -3 -23 -35 -107 -72 -187 -86 -184 -137 -302
-134 -306 2 -1 32 43 67 99 140 221 277 384 361 427 63 32 173 20 230 -25 8
-7 24 -15 35 -19 14 -4 11 2 -12 23 -18 17 -56 37 -84 45 -127 38 -197 10
-323 -129 -46 -51 -97 -115 -112 -142 -29 -50 -64 -100 -64 -90 0 3 29 65 65
138 82 168 84 198 24 264 -43 47 -146 105 -186 105 -13 0 -34 -11 -47 -25z"/>
<path fill="#000000" stroke="none" d="M2851 3354 c-197 -53 -386 -243 -517
-518 -69 -146 -87 -227 -88 -386 -1 -129 0 -138 28 -198 19 -40 46 -78 74
-103 87 -76 159 -72 269 17 23 19 44 34 47 34 12 0 -78 -238 -125 -333 -120
-239 -251 -361 -391 -362 -54 0 -59 2 -101 43 -29 28 -51 42 -63 40 -11 -2
-18 -9 -17 -16 2 -6 -3 -9 -10 -6 -18 7 -47 -48 -47 -90 0 -96 203 -216 365
-216 210 0 385 150 544 468 71 142 119 266 189 492 33 107 88 284 122 392 33
109 76 239 96 290 33 87 38 138 14 138 -5 0 -7 -7 -4 -15 4 -9 -16 -80 -44
-158 -52 -146 -117 -350 -172 -542 -158 -550 -355 -897 -568 -1002 -71 -36
-82 -38 -166 -38 -111 0 -182 20 -262 74 -96 64 -118 124 -65 183 l29 32 45
-41 c52 -48 79 -58 142 -51 121 14 257 137 362 328 46 84 132 309 157 413 8
33 7 33 -74 -29 -137 -104 -191 -108 -270 -18 -152 174 -108 511 108 833 88
132 199 237 306 291 76 39 98 45 163 49 42 2 92 -2 113 -8 36 -11 72 -40 76
-64 2 -7 10 -30 18 -52 20 -53 20 -82 -1 -94 -16 -9 -16 -10 4 -11 71 -1 8
191 -77 235 -37 19 -137 19 -209 -1z"/>
<path fill="#000000" stroke="none" d="M12373 3348 c-60 -66 -127 -270 -247
-758 -73 -300 -96 -398 -96 -418 0 -19 88 -105 100 -97 5 3 18 -3 28 -13 56
-56 110 -68 136 -30 9 12 23 56 32 97 24 110 79 308 102 369 24 63 135 230
192 290 22 23 42 42 44 42 2 0 15 -19 29 -43 38 -64 120 -137 154 -137 34 0
40 5 80 55 59 76 68 106 55 178 -16 88 -15 202 3 289 11 48 12 74 5 76 -5 2
-8 7 -5 12 8 13 -19 29 -78 44 -60 16 -114 8 -136 -18 -19 -22 -111 -176 -106
-176 3 0 -3 -8 -12 -18 -10 -9 -30 -33 -45 -52 -40 -50 -34 -20 12 73 23 45
39 90 38 102 -2 14 -11 3 -31 -40 -55 -117 -108 -246 -105 -255 4 -12 187 222
220 283 33 61 70 97 101 97 36 0 94 -19 116 -38 19 -16 19 -20 6 -87 -17 -83
-19 -206 -5 -293 10 -60 9 -66 -17 -113 -15 -28 -42 -63 -60 -79 -28 -25 -37
-28 -56 -19 -29 14 -135 143 -143 175 -4 14 -10 24 -14 22 -18 -8 -147 -161
-191 -228 -55 -84 -108 -234 -154 -438 -31 -137 -43 -166 -73 -170 -40 -6
-203 112 -202 146 2 52 192 788 245 949 57 173 89 223 141 223 44 0 217 -87
207 -104 -3 -6 0 -5 8 2 19 17 2 32 -94 82 -93 48 -151 54 -184 18z"/>
<path fill="#000000" stroke="none" d="M1890 3344 c-31 -13 -32 -13 -5 -7 48
11 156 3 189 -14 17 -8 45 -26 62 -39 17 -13 34 -21 37 -18 3 3 14 -8 26 -24
11 -16 18 -32 14 -36 -3 -3 -2 -6 3 -6 15 0 14 -35 -1 -155 -12 -94 -21 -123
-59 -200 -24 -49 -61 -109 -81 -132 -20 -24 -33 -43 -29 -43 4 0 -1 -9 -11
-20 -9 -10 -22 -18 -28 -17 -6 1 -11 -5 -12 -13 0 -8 -6 -15 -13 -15 -8 0 -19
-8 -26 -17 -7 -10 -16 -15 -19 -11 -4 3 -9 -2 -13 -11 -3 -9 -10 -14 -14 -11
-5 3 -11 1 -14 -4 -12 -20 13 -21 27 -1 7 11 17 17 20 14 3 -3 46 34 95 82
102 102 149 184 181 319 34 140 36 188 12 239 -26 53 -87 111 -145 137 -49 22
-145 24 -196 3z"/>
<path fill="#000000" stroke="none" d="M3719 3336 c-86 -35 -117 -58 -205
-148 -95 -98 -174 -227 -229 -373 -46 -124 -63 -203 -71 -330 -11 -174 24
-272 133 -376 99 -94 212 -121 328 -78 31 11 74 38 95 58 22 21 41 36 43 35 6
-6 135 132 186 199 47 63 56 86 52 127 -3 21 -50 62 -63 54 -6 -4 -3 -11 8
-17 11 -6 21 -9 23 -6 3 2 8 -9 12 -25 7 -24 3 -39 -21 -78 -17 -26 -27 -48
-24 -48 12 0 -26 -41 -126 -136 -132 -124 -234 -180 -309 -170 -98 13 -226
105 -270 193 -32 64 -51 149 -51 229 0 199 96 469 228 644 31 41 57 78 57 81
0 4 24 25 53 48 130 103 230 143 307 122 68 -18 153 -78 177 -124 48 -95 2
-324 -94 -459 -11 -16 -17 -28 -14 -28 2 0 -23 -27 -56 -60 -33 -33 -62 -60
-66 -60 -3 0 -13 -6 -21 -14 -9 -8 -56 -39 -104 -69 -48 -31 -83 -58 -77 -62
14 -9 125 61 215 136 68 56 147 145 173 196 29 55 65 174 78 257 17 113 8 151
-47 211 -86 93 -203 119 -320 71z"/>
<path fill="#000000" stroke="none" d="M3840 2156 c0 -2 -8 -10 -17 -17 -16
-13 -17 -12 -4 4 13 16 21 21 21 13z"/>
<path fill="#000000" stroke="none" d="M7837 3336 c-77 -32 -119 -62 -193
-138 -164 -168 -281 -424 -304 -664 -23 -245 51 -406 227 -494 145 -73 310 -7
485 194 131 151 153 204 102 251 -30 28 -40 30 -50 13 -5 -7 -2 -9 9 -5 18 7
47 -31 47 -62 0 -10 -16 -42 -35 -71 -19 -29 -35 -55 -35 -58 0 -14 -181 -182
-235 -218 -86 -57 -132 -70 -197 -55 -83 19 -141 52 -193 111 -92 104 -124
222 -104 388 18 145 49 253 110 380 32 67 59 124 59 127 -1 12 174 201 207
223 19 13 65 38 101 55 114 53 195 39 302 -53 l45 -38 0 -114 c-1 -97 -4 -125
-29 -196 -64 -188 -194 -318 -456 -453 l-65 -34 3 -60 c6 -113 50 -157 133
-135 67 18 200 123 257 203 56 79 20 59 -59 -31 -78 -91 -155 -143 -229 -157
-52 -10 -82 26 -88 104 l-4 59 110 56 c178 91 312 218 383 360 64 131 91 324
55 394 -18 36 -87 96 -138 123 -54 27 -147 25 -221 -5z"/>
<path fill="#000000" stroke="none" d="M11679 3346 c-105 -22 -238 -127 -340
-269 -59 -83 -134 -249 -165 -364 -32 -120 -43 -300 -24 -395 24 -128 105
-234 217 -285 46 -21 65 -25 118 -21 34 3 71 10 81 16 14 9 -1 10 -61 5 -69
-5 -87 -3 -133 17 -69 30 -150 117 -181 196 -29 72 -40 255 -22 357 27 153
127 385 222 510 115 152 296 255 376 214 35 -19 98 -86 108 -116 6 -20 18 -26
79 -36 38 -6 58 -27 86 -95 19 -46 23 -73 23 -160 -1 -242 -75 -468 -211 -643
-54 -70 -84 -99 -164 -159 -66 -49 -77 -71 -18 -37 113 68 243 220 311 364 20
44 50 130 65 190 25 95 29 129 29 250 0 86 -5 156 -13 183 -17 57 -65 109
-113 124 -29 8 -49 24 -73 57 -72 97 -108 115 -197 97z"/>
<path fill="#000000" stroke="none" d="M13277 3322 c-35 -39 -182 -405 -241
-602 -44 -147 -69 -288 -70 -400 -1 -96 1 -110 25 -155 32 -59 75 -109 89
-100 9 6 31 45 205 360 146 265 286 471 363 535 59 49 65 38 26 -47 -97 -210
-177 -455 -204 -625 -12 -73 -12 -78 10 -113 25 -40 117 -118 133 -112 5 1 39
57 75 122 135 249 207 374 288 495 85 130 183 244 191 223 2 -6 -23 -94 -56
-195 -87 -268 -109 -409 -80 -524 24 -94 116 -150 207 -125 47 12 127 63 145
93 8 12 7 24 -1 43 -10 21 -15 24 -31 15 -29 -15 -77 -12 -91 5 -18 21 -7 169
19 266 11 41 56 177 101 302 98 279 105 306 86 351 -29 68 -110 93 -190 58
-101 -45 -219 -187 -402 -481 -57 -91 -107 -173 -113 -181 -28 -43 53 182 135
373 32 72 63 152 70 175 13 43 13 45 -15 72 -26 26 -112 60 -153 60 -42 0
-111 -46 -183 -122 -80 -83 -196 -253 -322 -468 -76 -129 -87 -133 -53 -16 30
105 65 193 157 391 45 99 83 188 83 197 0 28 -55 83 -119 116 -32 18 -61 32
-63 32 -3 0 -12 -8 -21 -18z"/>
<path fill="#000000" stroke="none" d="M1784 3292 c-105 -69 -225 -211 -292
-347 -107 -215 -154 -457 -121 -617 45 -217 270 -366 449 -299 128 48 362 282
386 386 5 23 -6 12 -46 -45 -28 -41 -64 -88 -80 -105 -15 -16 -29 -35 -31 -41
-7 -22 -153 -136 -213 -167 -81 -41 -149 -42 -225 -3 -66 34 -156 117 -182
168 -94 184 -46 499 119 778 30 52 55 96 54 97 -3 4 169 173 176 173 4 0 23
14 42 30 48 41 35 38 -36 -8z"/>
<path fill="#000000" stroke="none" d="M2895 3320 c-106 -22 -178 -63 -274
-154 -196 -187 -339 -491 -341 -721 0 -111 58 -246 124 -286 66 -40 129 -14
265 113 42 38 77 64 79 59 5 -14 -72 -265 -109 -360 -74 -186 -179 -349 -272
-423 -88 -69 -122 -82 -214 -83 l-82 0 -41 40 -41 40 -20 -24 c-10 -13 -19
-32 -19 -42 0 -31 73 -97 146 -131 65 -31 75 -33 179 -33 102 0 114 2 168 29
117 60 251 225 348 431 70 149 107 248 183 496 37 118 105 332 152 476 48 144
84 268 81 275 -5 14 -78 41 -142 54 -30 6 -31 5 -53 -63 -36 -113 -147 -338
-219 -446 -104 -156 -279 -328 -307 -300 -22 22 8 179 59 308 88 225 277 488
402 562 45 26 114 34 163 18 21 -7 22 -5 15 27 -4 18 -18 53 -32 76 -38 66
-93 83 -198 62z"/>
<path fill="#000000" stroke="none" d="M12412 3323 c-42 -17 -124 -269 -244
-754 -60 -242 -89 -374 -85 -391 7 -26 71 -79 137 -113 41 -21 42 -20 70 104
27 119 86 329 107 379 26 63 124 201 201 284 41 43 77 78 82 78 4 0 15 -19 24
-43 21 -55 123 -179 144 -175 22 4 104 129 97 147 -3 8 -11 48 -17 88 -11 69
-5 164 18 289 5 28 3 32 -27 43 -36 13 -88 14 -105 3 -7 -4 -28 -35 -48 -70
-41 -69 -111 -164 -195 -263 -31 -36 -68 -81 -83 -100 l-27 -34 18 70 c22 87
51 165 103 277 48 104 48 104 -57 155 -68 32 -87 37 -113 26z"/>
<path fill="#000000" stroke="none" d="M1904 3302 c-156 -54 -305 -220 -405
-452 -67 -155 -84 -235 -84 -395 0 -139 0 -141 33 -207 53 -107 158 -186 264
-196 70 -7 158 40 266 143 88 83 182 205 182 236 0 10 -10 24 -22 30 -20 11
-25 9 -42 -17 -47 -68 -182 -191 -238 -217 -143 -67 -218 -13 -218 158 l0 60
98 47 c250 118 401 291 446 510 30 147 20 196 -57 259 -73 60 -134 71 -223 41z"/>
<path fill="#000000" stroke="none" d="M2033 3087 c11 -29 -16 -137 -54 -215
-29 -59 -59 -101 -107 -150 -63 -64 -208 -170 -218 -160 -8 9 53 183 89 255
19 37 55 95 80 129 78 106 194 184 210 141z"/>
<path fill="#000000" stroke="none" d="M1970 3050 c-91 -68 -179 -179 -209
-260 -8 -19 -19 -48 -26 -65 -33 -77 -45 -108 -42 -111 7 -8 84 57 120 100 21
26 42 44 47 41 20 -12 98 108 123 190 18 61 28 125 19 125 -4 0 -18 -9 -32
-20z"/>
<path fill="#000000" stroke="none" d="M1981 2993 c-7 -26 -26 -74 -43 -106
-34 -62 -191 -237 -203 -225 -9 9 62 160 106 226 35 51 140 164 147 157 3 -2
-1 -26 -7 -52z"/>
<path fill="#000000" stroke="none" d="M3765 3306 c-70 -22 -123 -55 -188
-116 -248 -231 -391 -701 -287 -937 45 -103 183 -203 279 -203 62 0 154 49
240 126 77 71 201 229 201 256 0 10 -10 23 -22 29 -20 11 -25 8 -57 -32 -108
-136 -240 -229 -325 -229 -78 0 -111 46 -122 168 l-7 69 97 48 c162 79 301
193 377 309 51 78 89 199 96 307 l6 87 -47 47 c-79 78 -151 100 -241 71z"/>
<path fill="#000000" stroke="none" d="M3882 3050 c-10 -155 -122 -318 -296
-436 -44 -29 -81 -52 -83 -51 -7 7 53 179 83 241 65 132 165 250 238 282 50
22 61 15 58 -36z"/>
<path fill="#000000" stroke="none" d="M3820 3053 c-47 -31 -112 -98 -152
-157 -38 -56 -131 -266 -122 -275 8 -8 28 18 31 40 6 38 72 170 117 232 51 72
120 141 134 136 19 -7 -18 -112 -64 -180 -24 -37 -77 -97 -116 -133 -80 -75
-82 -85 -5 -27 112 86 194 214 212 334 8 51 3 55 -35 30z"/>
<path fill="#000000" stroke="none" d="M5260 3289 c-73 -42 -185 -158 -245
-255 -67 -107 -139 -272 -171 -391 -22 -82 -27 -120 -28 -238 -1 -167 14 -224
77 -292 52 -57 84 -73 145 -73 40 0 60 7 108 38 62 40 132 112 168 172 l21 35
7 -60 c19 -150 105 -212 241 -174 33 9 52 29 27 29 -5 0 -10 -4 -10 -8 0 -15
-143 -7 -168 8 -40 26 -66 96 -70 193 l-5 89 -25 -44 c-44 -75 -120 -164 -178
-209 -54 -42 -61 -44 -125 -45 -38 -1 -75 4 -83 10 -28 23 -86 120 -101 169
-47 157 5 430 125 670 93 183 230 335 348 383 49 20 53 24 27 24 -16 0 -55
-14 -85 -31z"/>
<path fill="#000000" stroke="none" d="M5388 3313 c6 -2 18 -2 25 0 6 3 1 5
-13 5 -14 0 -19 -2 -12 -5z"/>
<path fill="#000000" stroke="none" d="M7883 3305 c-244 -76 -479 -459 -500
-815 -12 -212 55 -339 218 -415 73 -34 122 -32 198 6 78 39 231 183 297 279
46 68 47 70 29 90 -26 29 -39 25 -71 -21 -44 -64 -165 -171 -227 -202 -63 -30
-130 -36 -164 -12 -33 23 -55 91 -51 164 l3 64 101 51 c115 58 234 145 300
220 119 135 192 410 132 493 -72 97 -162 131 -265 98z"/>
<path fill="#000000" stroke="none" d="M8003 3047 c-5 -149 -129 -330 -303
-443 -39 -25 -73 -44 -75 -42 -8 7 54 178 92 253 69 136 145 226 228 269 48
25 60 17 58 -37z"/>
<path fill="#000000" stroke="none" d="M7945 3058 c-31 -17 -115 -101 -115
-115 0 -7 -3 -13 -7 -13 -13 0 -83 -115 -103 -167 -10 -26 -28 -72 -39 -101
-24 -59 -23 -59 59 3 70 54 139 128 172 185 46 79 85 221 61 220 -5 0 -17 -6
-28 -12z"/>
<path fill="#000000" stroke="none" d="M7949 2984 c-15 -61 -32 -96 -79 -159
-35 -47 -162 -175 -174 -175 -6 0 37 93 89 190 37 70 158 210 171 198 3 -3 0
-27 -7 -54z"/>
<path fill="#000000" stroke="none" d="M14960 3294 c-156 -89 -317 -315 -399
-563 -70 -209 -81 -432 -26 -541 70 -140 182 -187 288 -120 54 34 125 105 170
170 l31 44 12 -64 c7 -36 17 -77 22 -91 14 -36 66 -77 108 -85 76 -14 205 36
212 83 2 12 -8 44 -22 72 -20 38 -26 65 -26 114 0 127 50 357 131 599 49 146
57 181 40 163 -14 -15 -107 -300 -130 -395 -42 -178 -53 -263 -49 -370 2 -81
7 -113 21 -134 28 -42 16 -70 -42 -95 -99 -42 -185 -18 -226 64 -16 31 -20 60
-20 132 0 51 -1 93 -2 93 -1 0 -10 -15 -19 -32 -27 -54 -126 -178 -169 -213
-59 -48 -98 -65 -148 -65 -37 0 -51 6 -91 41 -77 68 -106 147 -106 291 0 193
89 459 219 652 28 42 51 79 51 82 -1 2 36 37 81 76 115 99 181 126 235 95 42
-23 109 -94 127 -132 l18 -38 19 31 c26 43 62 50 114 23 80 -41 105 -58 98
-66 -4 -5 -1 -5 6 -1 21 12 -14 44 -83 77 -74 36 -89 36 -122 3 l-26 -27 -21
29 c-32 46 -106 115 -116 109 -6 -4 -10 -1 -10 4 0 7 -22 11 -52 11 -38 0 -66
-7 -98 -26z"/>
<path fill="#000000" stroke="none" d="M17260 3298 c-92 -33 -146 -67 -218
-140 -74 -74 -90 -98 -142 -200 -175 -343 -110 -742 143 -868 100 -50 156 -40
274 52 66 51 181 181 190 216 4 17 -1 30 -15 45 l-21 21 -53 -50 c-103 -97
-204 -153 -276 -154 -42 0 -44 2 -63 45 -42 95 -43 281 -2 444 47 193 177 392
292 450 75 39 101 24 101 -56 0 -69 -32 -151 -80 -206 -22 -25 -40 -50 -40
-56 0 -16 64 -60 97 -67 24 -5 37 0 66 26 102 89 136 313 66 426 -52 85 -192
117 -319 72z"/>
<path fill="#000000" stroke="none" d="M11649 3291 c-185 -72 -359 -316 -436
-610 -32 -123 -37 -305 -10 -392 35 -117 138 -220 234 -235 83 -12 208 48 319
154 141 135 232 317 269 542 19 111 17 259 -5 315 -18 47 -60 85 -102 92 -33
5 -44 14 -74 59 -64 96 -103 111 -195 75z"/>
<path fill="#000000" stroke="none" d="M11840 3071 c21 -41 31 -163 20 -263
-15 -138 -43 -237 -100 -353 -77 -159 -207 -285 -294 -285 -42 0 -66 61 -66
171 0 249 177 604 359 721 53 33 67 35 81 9z"/>
<path fill="#000000" stroke="none" d="M11787 3045 c-79 -33 -207 -193 -277
-349 -63 -139 -99 -324 -81 -421 14 -76 26 -89 69 -74 18 6 32 16 32 22 0 6 3
7 6 4 12 -11 85 55 131 117 61 83 107 183 140 306 24 90 28 124 28 240 0 153
-6 173 -48 155z"/>
<path fill="#000000" stroke="none" d="M11819 2902 c1 -152 -35 -306 -105
-444 -27 -53 -152 -218 -164 -215 -3 1 -20 -7 -38 -17 -26 -13 -37 -15 -47 -6
-39 33 -26 220 26 367 66 188 152 319 273 421 36 31 41 32 47 15 4 -10 8 -64
8 -121z"/>
<path fill="#000000" stroke="none" d="M5457 3283 c-8 -12 50 -69 60 -59 4 3
-7 20 -24 37 -17 17 -33 27 -36 22z"/>
<path fill="#000000" stroke="none" d="M5285 3251 c-61 -35 -179 -155 -228
-233 -110 -174 -186 -391 -203 -578 -19 -225 98 -401 229 -346 49 20 139 106
191 181 22 33 67 110 99 170 32 61 56 101 53 90 -39 -158 -47 -328 -18 -385
34 -69 114 -84 204 -39 l38 19 -22 41 c-57 111 -18 395 104 757 40 117 50 157
42 170 -14 23 -103 71 -131 72 -28 0 -42 -27 -153 -290 -147 -351 -277 -566
-371 -615 -44 -23 -54 -6 -53 87 1 135 51 284 151 451 85 141 241 287 308 287
25 0 17 32 -20 87 -71 106 -130 126 -220 74z"/>
<path fill="#000000" stroke="none" d="M14975 3251 c-73 -42 -185 -165 -248
-273 -223 -379 -246 -793 -49 -880 62 -28 104 -14 182 58 68 63 128 149 207
297 30 56 51 89 48 72 -29 -130 -35 -171 -35 -248 0 -100 15 -147 55 -173 37
-24 110 -22 163 5 l42 21 -22 43 c-57 111 -20 390 98 746 63 186 62 191 -19
230 -83 40 -92 34 -152 -114 -203 -496 -369 -775 -460 -775 -20 0 -25 6 -31
36 -44 233 247 751 444 790 17 4 32 11 32 16 0 16 -38 85 -66 117 -56 67 -112
76 -189 32z"/>
<path fill="#000000" stroke="none" d="M14241 3224 c-61 -28 -173 -136 -236
-229 -21 -30 -40 -53 -43 -50 -3 2 7 28 20 57 34 71 41 95 29 102 -5 3 -17
-20 -27 -51 -10 -32 -31 -87 -47 -123 -40 -91 -67 -160 -62 -160 2 0 34 46 71
103 167 255 294 364 410 355 53 -5 123 -45 134 -78 17 -53 0 -126 -104 -431
-93 -275 -108 -328 -113 -404 l-6 -88 58 7 c69 8 85 -2 85 -54 0 -51 -28 -83
-104 -120 -128 -63 -241 -26 -292 95 -33 80 -15 287 43 490 3 13 2 17 -5 10
-20 -20 -60 -172 -73 -278 -15 -124 -4 -203 37 -274 45 -78 163 -114 263 -78
57 20 128 71 144 103 17 34 7 86 -22 115 -18 18 -25 19 -67 10 l-47 -11 7 71
c8 84 36 197 72 293 14 38 54 148 87 244 70 205 78 272 39 328 -53 73 -154 92
-251 46z"/>
<path fill="#000000" stroke="none" d="M16499 3210 c-13 -10 -18 -19 -11 -20
6 0 12 4 12 9 0 14 73 5 109 -14 43 -22 129 -101 146 -136 13 -25 11 -34 -39
-135 -29 -60 -62 -136 -74 -169 -58 -165 -152 -539 -152 -607 0 -48 -18 -78
-46 -78 -41 0 -141 77 -169 130 -29 57 -27 103 15 357 55 326 78 414 137 521
47 87 59 117 42 106 -5 -3 -7 -9 -4 -14 3 -4 -2 -10 -10 -14 -24 -9 -104 -181
-125 -269 -24 -105 -88 -478 -96 -566 -7 -77 6 -117 57 -176 43 -49 115 -95
149 -95 46 0 58 19 70 110 31 235 168 674 252 809 23 38 29 57 24 77 -10 39
-111 140 -169 169 -61 30 -87 31 -118 5z"/>
<path fill="#000000" stroke="none" d="M5625 3212 c-11 -2 -30 -14 -43 -25
-20 -18 -24 -19 -32 -7 -15 24 -12 -10 3 -37 13 -23 13 -23 31 11 24 44 47 49
110 24 28 -11 58 -21 66 -22 8 -2 23 -19 33 -40 l18 -37 -55 -162 c-79 -231
-117 -402 -123 -559 -4 -90 -2 -128 5 -128 8 0 9 17 6 49 -12 110 42 367 136
651 49 146 51 156 37 185 -22 46 -143 107 -192 97z"/>
<path fill="#000000" stroke="none" d="M4914 3175 c0 -19 -5 -40 -10 -45 -10
-10 -76 -24 -209 -47 l-50 -8 -57 -170 c-31 -93 -69 -219 -83 -279 -36 -146
-60 -337 -48 -373 8 -23 11 -10 16 67 8 124 46 294 114 520 22 73 71 208 79
218 1 2 47 10 101 18 54 8 108 16 120 19 33 8 56 48 48 85 -9 41 -21 38 -21
-5z"/>
<path fill="#000000" stroke="none" d="M16500 3139 c-48 -66 -98 -170 -120
-251 -26 -98 -100 -542 -100 -605 0 -60 40 -130 97 -167 71 -46 75 -43 90 59
34 233 183 706 253 805 11 15 20 35 20 44 0 38 -121 141 -179 152 -26 5 -33 1
-61 -37z"/>
<path fill="#000000" stroke="none" d="M2998 3130 c-45 -14 -117 -71 -180
-145 -97 -114 -216 -318 -260 -445 -20 -58 -60 -241 -55 -247 9 -9 103 75 167
150 109 124 217 312 290 498 44 113 56 159 42 159 -6 0 -14 -15 -17 -32 -10
-47 -129 -311 -175 -389 -80 -135 -245 -339 -276 -339 -10 0 -9 12 1 59 47
199 206 482 355 632 60 61 105 89 160 100 34 6 34 7 5 7 -16 0 -42 -3 -57 -8z"/>
<path fill="#000000" stroke="none" d="M3080 3100 c14 -4 39 -8 55 -8 25 -1
27 1 10 8 -11 5 -36 8 -55 8 -32 0 -33 -1 -10 -8z"/>
<path fill="#000000" stroke="none" d="M3175 3080 c3 -5 15 -10 26 -10 11 0
18 -4 15 -8 -3 -5 2 -9 11 -9 12 0 11 5 -7 19 -24 19 -55 25 -45 8z"/>
<path fill="#000000" stroke="none" d="M15198 3058 c-16 -5 -28 -14 -28 -19 0
-6 5 -7 10 -4 23 14 6 -34 -78 -217 -102 -226 -197 -391 -265 -462 l-48 -51 6
68 c9 89 62 247 120 352 25 47 46 87 46 89 1 8 83 100 140 157 31 31 51 56 43
56 -7 0 -11 -4 -8 -9 3 -4 -3 -8 -13 -8 -43 0 -168 -160 -245 -315 -59 -117
-77 -171 -89 -269 -5 -45 -11 -90 -14 -101 -2 -11 0 -27 5 -34 7 -12 15 -10
44 13 20 15 36 36 36 47 0 10 4 18 9 17 29 -8 205 316 285 522 20 52 46 114
56 138 11 23 19 42 17 41 -1 0 -14 -5 -29 -11z"/>
<path fill="#000000" stroke="none" d="M5474 3038 c-15 -12 -35 -23 -43 -24
-28 -4 -141 -137 -192 -225 -71 -124 -107 -208 -129 -302 -22 -92 -27 -207 -8
-207 39 0 173 195 264 384 62 129 164 370 164 387 0 16 -27 9 -56 -13z"/>
<path fill="#000000" stroke="none" d="M5500 3027 c0 -29 -173 -402 -240 -517
-52 -90 -141 -203 -151 -193 -12 12 8 144 32 215 58 174 182 370 287 455 45
37 72 52 72 40z"/>
<path fill="#000000" stroke="none" d="M1770 2481 c-90 -48 -105 -60 -108 -83
-2 -15 1 -35 7 -45 8 -15 10 -10 11 22 l0 40 83 38 c87 40 135 71 121 79 -5 2
-56 -21 -114 -51z"/>
<path fill="#000000" stroke="none" d="M2126 2510 c12 -4 24 -15 27 -24 3 -8
15 -20 27 -26 20 -11 21 -10 11 9 -14 25 -50 51 -71 50 -9 0 -7 -3 6 -9z"/>
<path fill="#000000" stroke="none" d="M3881 2445 c-28 -35 -51 -68 -51 -72 0
-12 -151 -111 -188 -124 -18 -6 -41 -9 -52 -6 -11 3 -18 1 -14 -4 10 -16 77
-9 122 12 75 37 228 190 237 239 2 11 2 20 0 20 -2 0 -26 -29 -54 -65z"/>
<path fill="#000000" stroke="none" d="M2019 2423 c-24 -32 -53 -66 -64 -77
-33 -31 -118 -82 -158 -95 -35 -12 -97 -7 -96 7 2 15 -14 52 -22 52 -17 0 18
-65 42 -78 63 -33 202 45 317 179 19 22 38 69 28 69 -2 0 -23 -26 -47 -57z"/>
<path fill="#000000" stroke="none" d="M3513 2415 c-10 -27 4 -116 20 -133 16
-15 16 -13 7 18 -14 49 -13 117 3 123 7 3 5 6 -6 6 -10 1 -20 -6 -24 -14z"/>
<path fill="#000000" stroke="none" d="M4690 2299 c0 -6 7 -8 16 -5 8 3 13 2
10 -3 -3 -4 3 -16 14 -26 38 -34 26 -68 -51 -146 -81 -80 -150 -118 -219 -120
l-45 -1 35 -8 c69 -16 137 11 222 89 30 27 67 67 82 89 27 39 27 40 10 81 -15
39 -38 61 -63 61 -6 0 -11 -5 -11 -11z"/>
<path fill="#000000" stroke="none" d="M4635 2270 c-4 -6 -30 -24 -58 -41 -50
-29 -50 -30 -17 -24 36 7 100 49 100 66 0 12 -17 12 -25 -1z"/>
<path fill="#000000" stroke="none" d="M5640 2213 c0 -6 9 -30 19 -54 19 -41
19 -45 3 -64 -17 -20 -17 -20 5 -1 18 15 22 26 18 54 -4 33 -45 92 -45 65z"/>
<path fill="#000000" stroke="none" d="M4218 2123 c40 -51 142 -122 142 -98 0
2 -24 22 -52 44 -29 22 -69 52 -88 68 l-35 28 33 -42z"/>
<path fill="#000000" stroke="none" d="M923 1960 c-19 -11 -56 -20 -90 -23
l-58 -3 63 -2 c62 -2 122 17 122 38 0 13 0 13 -37 -10z"/>
</g>
</svg>
